<svg id="圖層_1" data-name="圖層 1" xmlns="http://www.w3.org/2000/svg" viewBox="0 0 373.3 88.97"><defs><style>.cls-1{fill:#984a30;}</style></defs><path class="cls-1" d="M135.9,28.23C134.64,17,119.59,14.74,110.54,15.64a38.25,38.25,0,0,0-5.89,1C100.7,9,90.7,5.93,82.22,6.4c-8.8.49-18.38,3-25.24,8.85a15.94,15.94,0,0,0-5.22-2.13c-6.07-1.33-12.26.43-17.57,3.39-5.14,2.87-10.87,6.8-13.58,12.19-4.78,9.51.08,25.4,11.2,28a3.68,3.68,0,0,0,3.69-1,1.49,1.49,0,0,0-.65-2.5c-6.64-2.69-10.09-9.76-10.42-16.62a13.73,13.73,0,0,1,4.31-11.16,36.32,36.32,0,0,1,9.36-6.4c5-2.36,10.78-2.66,15.07.13-.21.27-.42.55-.62.83-2.76,3.85-5.26,9.84-3.14,14.5,2.23,4.9,8.21,5.32,12.1,2.12,4.43-3.65,3.91-9.37,1.67-14.12a18.69,18.69,0,0,0-3-4.52,29.62,29.62,0,0,1,12.89-6.15c7.58-1.75,16.68-2.32,23,3.13a14.15,14.15,0,0,1,3,3.59A37.16,37.16,0,0,0,94.41,21c-3.73,2.3-8.68,6.15-7.4,11.19,1.42,5.57,8.84,5.19,12.82,3a13.08,13.08,0,0,0,6.47-12.89A14.68,14.68,0,0,0,106,20.5c.51-.11,1-.22,1.54-.3a30,30,0,0,1,12.33.55c3.94,1,8.44,2.8,9.9,6.93,1.53,4.35-.41,8.88-3.09,12.3s-5.94,6.71-10.13,7.91c-3.06.88-3.58,5.19.24,4.25,5.59-1.36,10.09-5.3,13.7-9.64C133.8,38.53,136.5,33.56,135.9,28.23ZM57.31,23.79a16.48,16.48,0,0,1,2,5.45c.2,1.48.11,4.6-1.77,5.22s-3.16-2.54-3.31-3.85a12.42,12.42,0,0,1,1.15-6,16,16,0,0,1,1.12-2.18A14.65,14.65,0,0,1,57.31,23.79Zm43.47,1c0,3.36-2.21,8.9-6.56,7.53-2-.64-2.31-2.85-1.37-4.56S95.64,25,97.2,24a26.33,26.33,0,0,1,3.29-1.71A11.83,11.83,0,0,1,100.78,24.76Z"/><path class="cls-1" d="M42.46,79.73c-.22-3.22-1.65-6.52-2.5-9.64s-1.63-6.48-2.8-9.63c-.65-1.72-4.95-1.18-4.76.82a73.76,73.76,0,0,0,2.21,11c.4,1.54.82,3.07,1.26,4.6s.65,3.19,1.63,4.39C38.81,82.89,42.62,82,42.46,79.73Z"/><path class="cls-1" d="M118.68,58.63c-.47-1.59-4.49-1.28-4.7.36-.44,3.56-.31,7.15-.86,10.7a48.71,48.71,0,0,1-1.06,5c-.21.76-.43,1.52-.67,2.28l-.3.9c-.06.12-.1.23-.15.32-.63.29-1.38.89-1.21,1.56l.87,1.3c1.31,1.44,3.79.32,4.77-.91,2-2.52,2.51-7,3-10.1C119.05,66.47,119.73,62.22,118.68,58.63Z"/><path class="cls-1" d="M29.27,75.83c-.54-2.72-2.75-4.41-4.41-6.57-1.91-2.51-4.25-5.5-5.44-8.45-.55-1.38-2.86-1.26-4.29-.42a.72.72,0,0,0-.23.14,3,3,0,0,0-.46.39l-.09.11a1.59,1.59,0,0,0-.37.73,3.71,3.71,0,0,0,.42,2.66A34.5,34.5,0,0,0,17.49,70c1.93,3,4.61,8.06,8.5,8C27,78,29.6,77.5,29.27,75.83Z"/><path class="cls-1" d="M129.77,61.36A63.2,63.2,0,0,1,126.66,69c-.83,1.7-3.06,4.32-3,6.21,0,2,3.61,2.13,4.7,1,3.66-3.87,5.64-9.69,7.14-14.72C136.25,58.89,130.49,59.25,129.77,61.36Z"/><path class="cls-1" d="M57.42,57.71c1.94-1.32,3.52-3.07,2.59-4.86-.68-1.32-2.54-1.08-3.79-1A20.79,20.79,0,0,0,48,54.21c-1.31.68.22,1.75,1.19,1.34,1.78-.74,5.16-2.38,7.14-1.8,1-.3,1.24.2.7,1.49a7.42,7.42,0,0,1-1.18,1.13A9.46,9.46,0,0,1,52.75,58c-1.58.55-1,2.29.58,1.76.81-.29,2.65-.51,3.33,0,.52.42.39,1.78.36,2.34-.06,1.23-.38,2.81-1.59,3.28a23.1,23.1,0,0,0-.69-3.18c-.25-.83-2.27-.65-2.26.28A61.79,61.79,0,0,0,53.1,69a22.05,22.05,0,0,0,.84,5.27,1,1,0,0,0,1,.48l.85-.07c.5,0,1.42-.64,1-1.25-.88-1.33-.81-4-1-5.51l-.06-.43c2.07-.36,3.71-3.47,3.94-5.46C59.94,59.56,59,58.22,57.42,57.71Z"/><path class="cls-1" d="M71.53,49.74a54.12,54.12,0,0,0-9.8,2.64c-1.09.45-.84,1.7.36,1.63,3-.17,6.32-1.28,9.25-2.12C72.88,51.91,73.71,49.31,71.53,49.74Z"/><path class="cls-1" d="M67.76,58a2.82,2.82,0,0,0-2.69-1.37A6.28,6.28,0,0,0,63,57c-.72-.19-1.91.26-2,.93a9.15,9.15,0,0,0,.41,4,.71.71,0,0,0,.36.4c.31.45,1,.41,1.46.29a10.58,10.58,0,0,0,2.27-.89c.46-.16.93-.33,1.38-.53s.66-.56.51-.88A2.07,2.07,0,0,0,67.76,58ZM65.22,59.5a1.92,1.92,0,0,1-.38.43,7.24,7.24,0,0,0-.93.31q-.18-.84-.3-1.68C64.19,58.28,66,58.23,65.22,59.5Z"/><path class="cls-1" d="M71.28,52.93c-.41-.67-2.58-.62-2.31.37a30.58,30.58,0,0,1,.74,11.82c-.26,2.36-.63,4.07-3.06,5-1.63.66-4,1.94-5.73,1.68-.82-.12-3,.89-1.66,1.8,2,1.35,4.52-.13,6.48-.87,2.19-.82,4.47-1.64,5.65-3.82s1.16-4.82,1.29-7.15C72.86,58.84,72.86,55.55,71.28,52.93Z"/><path class="cls-1" d="M86.46,52.19a17.38,17.38,0,0,0-3-1.45A9.44,9.44,0,0,0,81,49.9a1.73,1.73,0,0,0-2.14.2,58.87,58.87,0,0,1-3.15,5.08c-1.11,1.48,1.08,2,2,1,.06-.07.12-.15.19-.22s.3-.4.44-.6c.37-.51.73-1,1.06-1.55s.74-1.19,1.06-1.81c.43.23.91.41,1.31.6A16.24,16.24,0,0,0,84.79,54C85.66,54.17,87.72,53.07,86.46,52.19Z"/><path class="cls-1" d="M77.74,56.13l-.07.07C77.53,56.38,77.47,56.47,77.74,56.13Z"/><path class="cls-1" d="M84.24,54.12c-.8-.54-1.92-.07-2.75.21a14,14,0,0,0-3,1.42.57.57,0,0,0-.09,1,1.48,1.48,0,0,0,1.45.19c.71-.27,1.4-.6,2.12-.84a15.61,15.61,0,0,0,2.13-.7C84.68,55.07,84.81,54.5,84.24,54.12Z"/><path class="cls-1" d="M85.42,68.83c.3.29-.15-.18-.16-.19-.17-.16-.33-.34-.48-.51a24.78,24.78,0,0,0-1.57-1.95c-.57-.52-2.45-.16-2.23.84a3.73,3.73,0,0,0,.29.83l-1.75.82a18.42,18.42,0,0,0,.4-3.8,14.16,14.16,0,0,0,1.56-.5c.48-.19,1.36-.44,1.62-.94a4.45,4.45,0,0,0,1.3-4.94,1.81,1.81,0,0,0-2.45-1A17.46,17.46,0,0,0,78.48,59a1.21,1.21,0,0,0-.34.26c-.55,0-1.1.25-1.12.73-.17,3.44.49,6.61-.45,10a3.44,3.44,0,0,0-.82.47c-1.11.82.1,1.7,1.07,1.43a20.89,20.89,0,0,0,5.5-2.43l.07.09c.76.93,1.72,1.76,2.92.81C85.93,69.86,86,69.34,85.42,68.83Zm-4.33-6.19-.19.07a3.49,3.49,0,0,0-.34.15l-.73.26c0-.13,0-.26,0-.39a13.93,13.93,0,0,1,1.65-.56C81.33,62.33,81.22,62.48,81.09,62.64Zm-1.6-2.27c.76-.23,1.48-.55,2.22-.84l.17-.07a1.15,1.15,0,0,0,.08.15A1.85,1.85,0,0,1,82,60a2.54,2.54,0,0,1,0,.39,3.6,3.6,0,0,0-1.08.13q-.73.21-1.44.48c0-.21-.1-.41-.16-.62Z"/><path class="cls-1" d="M100.49,67.63c-.06-2-.18-4.07-.27-6.11-.14-2.88,0-5.69-3.56-6.14a8.79,8.79,0,0,0-3.24.26l-.09-1.49,1.39-.52a1.2,1.2,0,0,0,.57-.12,6.22,6.22,0,0,0,.76-.5c1.18-.82-.26-1.77-1.21-1.42-.56.21-1.13.4-1.7.59a24,24,0,0,0-.64-3.52c-.21-.78-2.09-.81-2.15.07a40,40,0,0,0,0,4.38c-1,.32-2,.63-3,1-1.35.44-.66,1.75.57,1.55.84-.14,1.68-.33,2.52-.55,0,.51.07,1,.11,1.52-1,.42-2.06.88-3,1.27-.63.26-.8.61-.7.91a.77.77,0,0,0-.3.6c.11,3,.13,6,.33,9a.64.64,0,0,0,.13.44c.31.48,1.1.46,1.72.15a1.31,1.31,0,0,0,.8-.81,1.43,1.43,0,0,0,0-.22c.05-.78.07-1.58.07-2.37a2,2,0,0,0,.65,0l.88-.18c.18,2.87.36,5.74.64,8.6.13,1.39,2.74.74,2.69-.47s-.11-2.22-.18-3.33a3.72,3.72,0,0,0,5.39.64C100.66,69.86,100.53,68.85,100.49,67.63Zm-4-10.08c1,.43.94,2.71,1,3.82a11.61,11.61,0,0,0-3.7,1.13c0-.37-.06-.74-.08-1.12a11.92,11.92,0,0,0,2.65-1c.48-.25.85-.86.19-1.21-1-.51-2-.11-3,.19,0-.57,0-1.15-.07-1.72A5.14,5.14,0,0,1,96.53,57.55Zm-7.37,1.58,1.54-.54c0,.53.09,1.06.13,1.59l-1.14.32a1.42,1.42,0,0,0-.33.13C89.3,60.13,89.23,59.63,89.16,59.13Zm.7,4.67a1.33,1.33,0,0,0-.24.1c0-.55-.06-1.1-.1-1.64a1.66,1.66,0,0,0,.61,0L91,62c0,.47.07.94.1,1.41Zm7.9,5.57c-.28.2-1.55-.41-1.94-.54a2.08,2.08,0,0,0-1.57.37c-.1-1.54-.21-3.08-.32-4.61A19.43,19.43,0,0,0,97.53,63l.12,3.47A22.12,22.12,0,0,1,97.76,69.37Z"/><path class="cls-1" d="M100,49.12c-.32-.23-.66-.44-1-.64-.6-.37-1.23-.73-1.84-1.08-1-.58-3.22.83-1.93,1.68.67.44,1.33.89,2,1.31a7.69,7.69,0,0,0,.87.52,2.67,2.67,0,0,0,1.7.09c.3-.06.88-.31.83-.72A1.37,1.37,0,0,0,100,49.12Z"/><path class="cls-1" d="M160.52,44.71c2.89-1.79,5.3-4.23,4.06-6.89-.91-2-3.63-1.73-5.43-1.68a30.35,30.35,0,0,0-12,2.91c-1.94.91.2,2.56,1.64,2,2.62-1,7.63-3.14,10.46-2.18,1.48-.36,1.79.37.92,2.21a10.1,10.1,0,0,1-1.77,1.56,14,14,0,0,1-4.64,2.18c-2.33.7-1.62,3.26.73,2.59,1.2-.37,3.87-.58,4.84.26.72.63.45,2.6.38,3.42-.17,1.78-.74,4-2.53,4.66a31.36,31.36,0,0,0-.79-4.65c-.32-1.23-3.26-1.1-3.3.26a88.27,88.27,0,0,0,.5,9.48c.2,2.52.08,5.3.89,7.7a1.44,1.44,0,0,0,1.44.75l1.24,0c.72,0,2.1-.84,1.54-1.75-1.2-2-.93-5.79-1.16-8l-.06-.63c3-.39,5.6-4.8,6.05-7.68C164.06,47.56,162.71,45.55,160.52,44.71Z"/><path class="cls-1" d="M181.48,34a78,78,0,0,0-14.37,3.23c-1.62.58-1.33,2.41.42,2.38,4.37-.07,9.25-1.47,13.54-2.5C183.3,37.25,184.67,33.53,181.48,34Z"/><path class="cls-1" d="M175.51,45.71a4.17,4.17,0,0,0-3.82-2.16,9.71,9.71,0,0,0-3.08.44c-1-.32-2.8.27-3,1.23a13,13,0,0,0,.35,5.85,1,1,0,0,0,.49.61c.42.67,1.41.65,2.1.51a16.11,16.11,0,0,0,3.34-1.14c.69-.21,1.37-.43,2-.69s1-.77.8-1.26A3,3,0,0,0,175.51,45.71Zm-3.79,2.08a2.36,2.36,0,0,1-.58.6,12.46,12.46,0,0,0-1.36.39c-.14-.82-.25-1.63-.33-2.46C170.3,46,172.87,46,171.72,47.79Z"/><path class="cls-1" d="M180.92,38.63c-.55-1-3.7-1.06-3.37.4a44.21,44.21,0,0,1,.34,17.19c-.52,3.4-1.16,5.86-4.75,7.14-2.41.85-5.88,2.57-8.41,2.09-1.19-.23-4.38,1.1-2.52,2.5,2.78,2.08,6.56.09,9.46-.86,3.23-1.06,6.57-2.11,8.43-5.2s2-6.92,2.31-10.29C182.85,47.31,183.06,42.53,180.92,38.63Z"/><path class="cls-1" d="M203,38.49a25.06,25.06,0,0,0-4.28-2.28,13.71,13.71,0,0,0-3.55-1.38,2.52,2.52,0,0,0-3.11.16,85.49,85.49,0,0,1-4.88,7.18c-1.7,2.08,1.44,3,2.82,1.6a3.92,3.92,0,0,1,.28-.31c.25-.26.46-.57.69-.85.56-.7,1.11-1.43,1.62-2.17s1.15-1.68,1.66-2.57c.6.36,1.29.65,1.86,1A23.45,23.45,0,0,0,200.46,41C201.71,41.32,204.76,39.84,203,38.49Z"/><path class="cls-1" d="M190.09,43.67l-.1.1C189.78,44,189.69,44.15,190.09,43.67Z"/><path class="cls-1" d="M199.65,41.16c-1.13-.83-2.78-.23-4,.14a20,20,0,0,0-4.46,1.86.83.83,0,0,0-.19,1.39,2.18,2.18,0,0,0,2.1.37c1.05-.35,2.06-.79,3.13-1.09a22.24,22.24,0,0,0,3.12-.89C200.22,42.57,200.45,41.75,199.65,41.16Z"/><path class="cls-1" d="M200.45,62.57c.43.44-.2-.27-.22-.29-.23-.25-.45-.5-.66-.77-.77-.92-1.3-2.09-2.16-2.93s-3.55-.38-3.29,1.08a5.44,5.44,0,0,0,.37,1.23c-.87.35-1.73.72-2.59,1.09a26.57,26.57,0,0,0,.82-5.49c.78-.18,1.54-.38,2.29-.63s2-.56,2.41-1.26a6.49,6.49,0,0,0,2.19-7.1c-.57-1.58-2-1.94-3.49-1.54A25.45,25.45,0,0,0,191,47.91a2,2,0,0,0-.51.36c-.79,0-1.61.3-1.67,1-.46,5,.31,9.62-1.26,14.44a5,5,0,0,0-1.22.64c-1.66,1.12,0,2.47,1.47,2.14a30.43,30.43,0,0,0,8.12-3.19l.09.13c1.05,1.4,2.39,2.67,4.18,1.36C201.12,64.1,201.2,63.33,200.45,62.57Zm-5.89-9.25-.29.09-.5.19c-.36.13-.71.23-1.07.34l0-.57a18.62,18.62,0,0,1,2.42-.71C194.93,52.88,194.75,53.1,194.56,53.32Zm-2.19-3.39c1.12-.28,2.19-.71,3.28-1.09l.25-.09a.84.84,0,0,0,.1.22,3.09,3.09,0,0,1,.08.61,5.23,5.23,0,0,1,0,.56,5.66,5.66,0,0,0-1.59.13,21.29,21.29,0,0,0-2.11.61c-.06-.31-.13-.61-.19-.92A1.13,1.13,0,0,0,192.37,49.93Z"/><path class="cls-1" d="M222.39,61.75c0-3,0-5.92,0-8.88,0-4.18.3-8.26-4.78-9.13a13.27,13.27,0,0,0-4.72.19c0-.73,0-1.45,0-2.18.69-.21,1.37-.43,2-.66a1.79,1.79,0,0,0,.84-.14,9.75,9.75,0,0,0,1.12-.67c1.77-1.13-.26-2.58-1.65-2.14l-2.51.76a35.88,35.88,0,0,0-.71-5.15c-.26-1.15-3-1.31-3.13,0a55.85,55.85,0,0,0-.32,6.34l-4.39,1.21c-2,.56-1.06,2.5.73,2.29a36.76,36.76,0,0,0,3.7-.65c0,.74,0,1.48.07,2.22-1.56.55-3.06,1.15-4.41,1.65-.93.34-1.2.84-1.08,1.29a1.11,1.11,0,0,0-.47.84c0,4.32-.17,8.7-.06,13a.81.81,0,0,0,.16.64c.41.72,1.56.74,2.48.33a1.86,1.86,0,0,0,1.2-1.12,1.18,1.18,0,0,0,.08-.31c.12-1.14.2-2.29.26-3.45a2.63,2.63,0,0,0,.94,0c.42,0,.84-.12,1.28-.19.08,4.17.17,8.34.4,12.51.11,2,3.93,1.24,3.93-.52s0-3.23-.06-4.84c1.76,2.39,5.35,3.37,7.79,1.25C222.5,65,222.37,63.53,222.39,61.75Zm-5.12-14.86c1.43.69,1.19,4,1.14,5.6-1.75-.05-3.73.81-5.44,1.41,0-.54,0-1.08-.05-1.62A17.69,17.69,0,0,0,216.83,51c.7-.33,1.28-1.19.35-1.73-1.42-.81-2.82-.28-4.31.09v-2.5A7.49,7.49,0,0,1,217.27,46.89Zm-10.8,1.84,2.27-.69.09,2.31-1.67.39a4.65,4.65,0,0,0-.49.17C206.61,50.18,206.55,49.45,206.47,48.73Zm.74,6.81-.37.13c0-.8,0-1.59,0-2.38a2.45,2.45,0,0,0,.88,0L208.9,53c0,.68,0,1.36,0,2C208.37,55.22,207.79,55.37,207.21,55.54Zm11.11,8.57c-.41.27-2.22-.69-2.78-.91a3.09,3.09,0,0,0-2.29.44c-.06-2.23-.12-4.47-.19-6.7a28.78,28.78,0,0,0,5.32-2.06c0,1.67,0,3.35,0,5A30.84,30.84,0,0,1,218.32,64.11Z"/><path class="cls-1" d="M222.8,34.87c-.45-.36-.93-.67-1.4-1-.86-.58-1.74-1.13-2.61-1.68-1.4-.9-4.72,1-2.9,2.32.94.68,1.87,1.37,2.82,2a10.87,10.87,0,0,0,1.23.81,3.74,3.74,0,0,0,2.45.23c.45-.06,1.3-.4,1.25-1A2,2,0,0,0,222.8,34.87Z"/><path class="cls-1" d="M232.12,65.46l-.15-.14C231.76,65.16,231.68,65.11,232.12,65.46Z"/><path class="cls-1" d="M249.62,47.39a2.17,2.17,0,0,0-2-1.07,3.56,3.56,0,0,0-1.25.28c-1.45.3-2.91.57-4.38.84l0-.1c-.17-.71-.35-1.44-.53-2.16l.5-.11a13.68,13.68,0,0,0,3.2-1c.75-.4,1.32-1.22.78-2a2.43,2.43,0,0,0-2.41-.82,20.41,20.41,0,0,0-3,.55l-.09,0A15.67,15.67,0,0,0,238.52,38c.8-.47,1.6-.94,2.39-1.43a16.69,16.69,0,0,0,2.87-1.88,1.36,1.36,0,0,0,.21-2,2.68,2.68,0,0,0-2.55-.57,13.27,13.27,0,0,0-3.07,1.51c-.92.5-1.83,1-2.74,1.55L233,36.73a17.68,17.68,0,0,0-3,1.83,1.58,1.58,0,0,0-.16,2.24,2.79,2.79,0,0,0,2.75.59A11.27,11.27,0,0,0,235.25,40q.5,1.39.9,2.82c-1.13.27-2.26.54-3.37.89-.78.24-1.72.84-1.47,1.79a1.52,1.52,0,0,0,.62.83l.17.1.29.14h0a2.64,2.64,0,0,0,1.1.15l.64-.08,1.46-.23,1.39-.26c.06.24.13.49.18.73.12.48.22,1,.33,1.43a58.86,58.86,0,0,0-9.11,2.46c-.65.25-1.24.92-.78,1.6a2.36,2.36,0,0,0,2.33.7c2.74-.47,5.46-1,8.19-1.46a33.38,33.38,0,0,1,.38,3.45,16.62,16.62,0,0,1-1.08,7.59,5.18,5.18,0,0,1-.52.91l-.22.21a1.72,1.72,0,0,0-.26-.1l-.75-.27A5.4,5.4,0,0,0,233.5,63c-1.28.12-2.71,1.22-1.53,2.32.2.15.52.39.62.45.31.2.63.39.95.58a7.51,7.51,0,0,0,2,.91,5,5,0,0,0,5-1.44c2.1-2.29,2.57-5.89,2.67-8.86a29.38,29.38,0,0,0-.52-6.21c.5-.1,1-.19,1.51-.3,1.61-.34,3.59-.6,4.93-1.61C249.53,48.54,249.93,47.89,249.62,47.39Z"/><path class="cls-1" d="M262.53,54.12a44.37,44.37,0,0,0-.6-6c-.16-.94-.36-1.87-.57-2.8a17.48,17.48,0,0,0-.54-2.83,1.58,1.58,0,0,0-1.21-.82,8.59,8.59,0,0,0,1.61-4.85c0-1-1.36-1.44-2.19-1.38S257,36,257,37a4.79,4.79,0,0,1-1,2.53c-.6.92-1.26,1.8-1.89,2.7s-1.13,1.63-1.74,2.42a2.24,2.24,0,0,1-.33.38,5.93,5.93,0,0,1-.44.43c-.17.16-.35.29-.52.44a4.48,4.48,0,0,0-.8,1.12.69.69,0,0,0,0,.61h0a.64.64,0,0,0,.13.19l.07.1a1.6,1.6,0,0,0,.35.28l.09.05a3.2,3.2,0,0,0,3.35,0,6.48,6.48,0,0,0,1.55-1.21,13.49,13.49,0,0,0,1-1.23c0,.23.07.45.1.67.26,1.54.47,3.09.62,4.65s.21,3,.22,4.49c0,.75,0,1.5,0,2.25,0,.35,0,.69-.05,1s0,.46,0,.68a.86.86,0,0,1,0,.17,2.2,2.2,0,0,0-.17.25c-.6,1.23.83,2.17,1.89,2.3a2.74,2.74,0,0,0,3-1.93,15.62,15.62,0,0,0,.22-3.21C262.58,56.19,262.57,55.15,262.53,54.12Z"/><path class="cls-1" d="M283.43,52.12a1.83,1.83,0,0,0-.31-.42l0,0a2,2,0,0,0-1.3-.68,2.5,2.5,0,0,0-.77,0,17.24,17.24,0,0,0-2.48.6c-.7.19-1.4.35-2.1.52l-.38.08v-.69c0-.76,0-1.51,0-2.27a13.55,13.55,0,0,0,1.79-.17,16.35,16.35,0,0,0,2.3-.54,5.76,5.76,0,0,0,2.45-1.24,1.59,1.59,0,0,0,.57-1.22,1.51,1.51,0,0,0-.74-1.12,2.62,2.62,0,0,0-.48-.22h0a4.12,4.12,0,0,0-3,.33c-.54.2-1.09.37-1.64.52-.27.08-.54.14-.81.2l-.4.09c.71-.17.31-.09,0,0,0-2.39-.08-4.77-.24-7.15a1.23,1.23,0,0,0-.2-.62l2.37-.61a19.05,19.05,0,0,0,4.05-1.27,1.72,1.72,0,0,0,.89-2.14A2.42,2.42,0,0,0,280.56,33a20,20,0,0,0-4.2,1l-3.68,1-3.69.93-.69.16c-.06-.83-.14-1.67-.21-2.49-.18-2-4.15-1.78-4.23.18-.08,1.79-.12,3.57-.15,5.36,0,.17,0,.33,0,.5s0,.63,0,.14a3.57,3.57,0,0,1-.15,1c0,.13-.13.86-.26.91.12-.27.13-.3,0-.11l-.12.23-.34.65a1.35,1.35,0,0,0,.47,1.92,3,3,0,0,0,2.71.08c1.78-.78,2.26-2.74,2.36-4.54.65-.14,1.3-.31,1.92-.45l1.32-.31c-.24,4.18-.24,8.37-.27,12.55,0,.63,0,1.25,0,1.88a1.21,1.21,0,0,0,0,2.06c0,.77,0,1.53,0,2.3a41,41,0,0,1-.2,4.71.86.86,0,0,0-.39,1.19l.18.54c.51,2.25,4.06,2.08,4.74,0a19.78,19.78,0,0,0,.49-6.24c0-.77,0-1.53,0-2.3l1.05-.18a23.36,23.36,0,0,0,5.34-1.41A1.65,1.65,0,0,0,283.43,52.12Z"/><path class="cls-1" d="M322.59,42a3.77,3.77,0,0,0-2-.1,2.63,2.63,0,0,0-1.22.66,26.45,26.45,0,0,1-3,.79,17.15,17.15,0,0,0,.89-2.81c.08-.36.14-.72.2-1.07,1-.21,2.12-.55,2.41-1.59.35-1.28-1-1.9-2.09-1.94a26.86,26.86,0,0,0-.35-4.84c-.26-1.65-3.78-1.68-3.9.05s-.1,3.6-.22,5.39c-1.15.19-2.32.37-3.47.57l-.38.05c-.16-.94-.32-1.88-.49-2.82a1.9,1.9,0,0,0-2.12-1.33c-.79.05-2,.46-2,1.47s.11,2.28.23,3.42a2.62,2.62,0,0,0-1.76,1l0,.08a2.39,2.39,0,0,0-1.1-.46,2.42,2.42,0,0,0-2.57,1.15c0,.05-.05.11-.08.17a26.43,26.43,0,0,1-2,3,52.46,52.46,0,0,0-.91-7.09,2,2,0,0,0-2.23-1.41c-.83.05-2.17.59-2.08,1.64a74.49,74.49,0,0,1,.52,11.17l-.06-.21,0,0a1.2,1.2,0,0,0-.13-.21h0l-.07-.09v0a1.17,1.17,0,0,0-.15-.16c-.11-.11-.23-.21-.35-.31-.34-.3-.71-.56-1.06-.85l.38.32-.51-.42A13.18,13.18,0,0,1,289.54,44a2.28,2.28,0,0,0-1.35-.64,3.09,3.09,0,0,0-1.41.17,2,2,0,0,0-1,.69,1.18,1.18,0,0,0-.15,1.22,8.91,8.91,0,0,0,1.5,1.9,8.68,8.68,0,0,0,1.12.88,5.79,5.79,0,0,0,1.93.73l.57,0,.57-.08a2.39,2.39,0,0,0,1.09-.6.75.75,0,0,0,.26-.35.51.51,0,0,0,.09-.16c-.05.65-.11,1.31-.2,2a29.24,29.24,0,0,1-1.49,6.05,19.41,19.41,0,0,1-1.25,2.7c-.23.41-.47.82-.73,1.22a7.66,7.66,0,0,1-.45.66l-.21.26,0,0a2,2,0,0,0-1.41,1,1.24,1.24,0,0,0,.54,1.65,4,4,0,0,0,4.78-.56,12.41,12.41,0,0,0,2.21-3.32,27,27,0,0,0,2.32-6.59c.11.23.22.46.32.69.41.92.66,2.07,1.59,2.61a2.89,2.89,0,0,0,2.5.16,1.84,1.84,0,0,0,1.28-1.64,5.81,5.81,0,0,0-.89-2.66c-.36-.74-.75-1.46-1.18-2.16a21.35,21.35,0,0,0-1.55-2.21c-.13-.16-.27-.31-.41-.46a4.25,4.25,0,0,0,.94-.62,12.68,12.68,0,0,0,2.44-2.68,16.09,16.09,0,0,0,1.64-3.13,2.78,2.78,0,0,0,1.84.54h.1c.09.65.19,1.31.3,2a13.28,13.28,0,0,0,.5,2.51l-1.32.28c-.91.21-2.33.55-2.65,1.57a1.28,1.28,0,0,0,.64,1.46c.45.29,1.64.64,2.13.28.09.19.25.23.46.13l.66-.08,1-.14c.76-.12,1.52-.25,2.28-.4,1.72-.33,3.43-.68,5.14-1.08,1.49-.34,3-.73,4.45-1.14,1.68-.47,3.43-.84,4.56-2.28C324.25,43.42,323.47,42.32,322.59,42Zm-9.92-1.7a13.42,13.42,0,0,1-1.4,3.37c-.16.28-.34.56-.51.84-.09-.67-.29-1.35-.42-2s-.23-1.21-.34-1.82C310.9,40.62,311.78,40.48,312.67,40.34Z"/><path class="cls-1" d="M308.33,51.88A2.38,2.38,0,0,0,305.76,53a44.12,44.12,0,0,0-1.48,4.18,26.06,26.06,0,0,0-1,4.26,1.62,1.62,0,0,0,.37,1.4,2.39,2.39,0,0,0,1.49.7c1.07.09,2.52-.37,2.79-1.56.33-1.41.53-2.84.86-4.25s.67-2.77,1.1-4.14C310.2,52.66,309.17,52,308.33,51.88Z"/><path class="cls-1" d="M324.11,59.35c-.06-.52-.14-1-.23-1.56a18.44,18.44,0,0,0-2.28-6.14,2.42,2.42,0,0,0-2.75-.94c-.85.25-1.86,1-1.42,2,.34.78.66,1.58.93,2.39q.18.54.33,1.08c0,.09.06.21.07.24.05.22.11.44.16.66a19.86,19.86,0,0,1,.38,2.31c0,.34.07.67.08,1a1.88,1.88,0,0,0-.6.69,1.39,1.39,0,0,0,.59,1.77,3.15,3.15,0,0,0,4.77-1.69A6,6,0,0,0,324.11,59.35Z"/><path class="cls-1" d="M342.66,37.61a2.65,2.65,0,0,0-1.23-.35c-.78,0-2,.26-2.28,1.16a13.09,13.09,0,0,1-.73,2c-.22.41-.45.81-.7,1.19-.14.22-.29.44-.44.65l-.24.31,0,0,0,0a.86.86,0,0,0-.13.14c0-.62,0-1.23-.09-1.84a6.47,6.47,0,0,0-.92-3.38c-.61-.84-3.14-.87-3.49.3a10.8,10.8,0,0,0-.18,3.11c0,1,0,2.11,0,3.16q0,1-.15,2l-.49-.4.39.32a9,9,0,0,1-1.31-1.31,1.52,1.52,0,0,0-.61-.42,1.78,1.78,0,0,0-.78-.24l-.59,0a2.3,2.3,0,0,0-.86.2,2.1,2.1,0,0,0-1,.74,1.28,1.28,0,0,0-.14,1.28,11.43,11.43,0,0,0,.65,1,4.43,4.43,0,0,0,.51.62,7,7,0,0,0,.95.78,5.68,5.68,0,0,0,.55.28l.3.14a1.4,1.4,0,0,0,.57.13l.61,0,.12,0a4,4,0,0,0,.69,0c-.06.29-.11.58-.18.87a35,35,0,0,1-1.71,5.68c-.64,1.59-1.27,3.24-2.75,4.18s0,2.43,1.12,2.56c2.9.33,4.43-1.69,5.51-4.07a37.34,37.34,0,0,0,2.36-6.81l.06.12c.15.3.28.61.43.92a2.35,2.35,0,0,0,.83.94,3.23,3.23,0,0,0,1.12.38,3.49,3.49,0,0,0,1.36-.16c.59-.13,1.47-.77,1.53-1.44a1.38,1.38,0,0,0-.08-1l-.15-.23-.07-.09c-.27-.48-.49-1-.76-1.46-.38-.66-.8-1.3-1.23-1.92-.24-.34-.49-.65-.74-1A7.39,7.39,0,0,0,339.4,46a9.17,9.17,0,0,0,2-2.13,11.68,11.68,0,0,0,1.31-2.5,11.91,11.91,0,0,0,.63-2.7C343.38,38.24,343,37.77,342.66,37.61Z"/><path class="cls-1" d="M366.48,43.62a2.19,2.19,0,0,0-2.36-1.31l-.38,0h-.06q-.3,0-.6.09c-2,.32-4,.66-6.05,1,.09-.09.19-.18.28-.28a8.52,8.52,0,0,0,1.7-2.83,6.11,6.11,0,0,0,.29-1.59,4.74,4.74,0,0,0-.2-1.49c-.08-.32-.54-.62-.86-.76a6,6,0,0,0,1.24-.48,1.52,1.52,0,0,0,.64-2.36,2.4,2.4,0,0,0-1.66-.69,13.91,13.91,0,0,0-4,.6,1.5,1.5,0,0,0,.32-.19,1.71,1.71,0,0,0,.75-1,1.07,1.07,0,0,0,0-.56,1.26,1.26,0,0,0-.12-.42,1.19,1.19,0,0,0-.24-.36,3.83,3.83,0,0,0-1.07-.81,8,8,0,0,0-3.35-1,3.06,3.06,0,0,0-1.66.25,1.81,1.81,0,0,0-.84.78.59.59,0,0,0-.13.39.86.86,0,0,0,.07.61,1.76,1.76,0,0,0,1.05.86,6,6,0,0,1,.84.3c.26.14.52.28.77.44s.56.41.86.59a3,3,0,0,0,1.26.37l-1.68.34-6.1,1.32c-.74.17-1.66.79-1.44,1.66a2,2,0,0,0,2.12,1.17l.73-.08c0,.07-.1.13-.14.21a3.18,3.18,0,0,0-.18,1.34c0,.33,0,.67,0,1,0,.66.06,1.31.12,2A4.1,4.1,0,0,0,347,45a18.08,18.08,0,0,0-4.78,1,1.31,1.31,0,0,0-.94,1.39c.18.69.88.95,1.51,1.1,1.75.41,3.86,0,5.63-.2s3.69-.43,5.53-.7,3.55-.53,5.32-.82a36.67,36.67,0,0,0,5.71-1.1C365.84,45.35,366.77,44.62,366.48,43.62Zm-13.71-6.16c.85-.13,1.7-.29,2.54-.44a1.36,1.36,0,0,0-.3.76,2.83,2.83,0,0,1,0,.29,8.41,8.41,0,0,1-.46,1.63,8.52,8.52,0,0,1-.81,1.27l-.24.26c-.2.2-.41.39-.63.58l-.61.49h0l-.41.28-.18.12c-.13.08-.25.18-.37.26-.08-.61-.11-1.25-.18-1.86-.06-.41-.1-.82-.17-1.22,0-.2-.06-.4-.1-.6a2.27,2.27,0,0,0-.55-1.3c-.07-.06-.14-.1-.21-.15C351,37.72,351.86,37.6,352.77,37.46Z"/><path class="cls-1" d="M362.55,60a10,10,0,0,0,1-3.46A7.7,7.7,0,0,0,362.47,51c-1.51-1.93-4.21-1.42-6.32-1.18a44.33,44.33,0,0,0-7.24,1.22,3,3,0,0,0-1,.52,3.21,3.21,0,0,0-.8.24,1.76,1.76,0,0,0-.95,1,11.43,11.43,0,0,0,0,2.48c0,.63,0,1.25,0,1.88s-.12,1.25-.22,1.87-.33,1.37-.45,2.07a1.73,1.73,0,0,0,.79,1.75,1.15,1.15,0,0,0,.5.7c1.29.83,3.11.73,4.6.73,1.32,0,2.63,0,4-.16.8-.06,1.6-.14,2.39-.23a4.27,4.27,0,0,0,.8-.1l.72-.09c1.46-.2,4.11-.22,4.61-2C364,60.85,363.34,60.27,362.55,60Zm-12.26,1.11a17.76,17.76,0,0,0,.57-4.08,16.53,16.53,0,0,0,0-2.11,9.3,9.3,0,0,0-.13-1.06s0-.08,0-.11c1.83-.13,3.65-.38,5.48-.55l1.47-.12c.27,0,.53-.05.8-.06h.08c0,.1.09.2.14.31s0,.12,0,.14l0,.12a7.89,7.89,0,0,1,.14,1.19c0,.18,0,.37,0,.56s0,.47,0,.52a10.06,10.06,0,0,1-.51,2.22l0,.1-.05.1c-.11.21-.21.44-.33.65a7,7,0,0,1-.6.93,4.13,4.13,0,0,1-.54.59l-1.61.22c-1.29.15-2.59.27-3.89.38Z"/></svg>