<svg id="圖層_1" data-name="圖層 1" xmlns="http://www.w3.org/2000/svg" viewBox="0 0 304.05 193.99"><defs><style>.cls-1{fill:#fff;}</style></defs><path class="cls-1" d="M218.23,42.05c-1.6-14.21-20.61-17-32-15.91a49.33,49.33,0,0,0-7.44,1.32c-5-9.67-17.63-13.59-28.35-13-11.11.62-23.22,3.83-31.89,11.18A20.18,20.18,0,0,0,111.93,23c-7.68-1.68-15.5.55-22.21,4.29C83.23,30.87,76,35.83,72.56,42.65c-6,12,.11,32.09,14.15,35.38a4.64,4.64,0,0,0,4.66-1.2,1.89,1.89,0,0,0-.82-3.17c-8.39-3.39-12.74-12.33-13.15-21a17.3,17.3,0,0,1,5.43-14.09,46.28,46.28,0,0,1,11.83-8.1c6.32-3,13.62-3.35,19,.17-.27.35-.53.7-.79,1.06-3.48,4.86-6.64,12.43-4,18.31,2.82,6.19,10.38,6.73,15.29,2.68,5.59-4.62,4.94-11.83,2.11-17.83a23.2,23.2,0,0,0-3.75-5.72c4.53-4,10.44-6.43,16.3-7.77,9.58-2.2,21.07-2.93,29,4a17.75,17.75,0,0,1,3.76,4.54,45.38,45.38,0,0,0-5.87,3.05c-4.71,2.9-11,7.77-9.34,14.14,1.79,7,11.16,6.55,16.19,3.76a16.55,16.55,0,0,0,8.18-16.28,22.68,22.68,0,0,0-.36-2.26c.64-.14,1.29-.27,1.94-.37A38.08,38.08,0,0,1,198,32.6c5,1.25,10.66,3.54,12.5,8.76,1.94,5.49-.51,11.21-3.9,15.54s-7.51,8.47-12.8,10c-3.87,1.11-4.53,6.56.3,5.38,7.07-1.73,12.76-6.71,17.31-12.19C215.57,55.07,219,48.79,218.23,42.05Zm-99.3-5.61a20.82,20.82,0,0,1,2.52,6.88c.25,1.88.13,5.82-2.24,6.61s-4-3.22-4.18-4.87a15.59,15.59,0,0,1,1.45-7.57,20.92,20.92,0,0,1,1.41-2.75A16.73,16.73,0,0,1,118.93,36.44Zm54.92,1.22c.05,4.25-2.79,11.25-8.28,9.52-2.56-.8-2.93-3.6-1.74-5.75s3.52-3.52,5.5-4.72a35,35,0,0,1,4.16-2.17A15.46,15.46,0,0,1,173.85,37.66Z"/><path class="cls-1" d="M100.17,107.12c-.27-4.07-2.09-8.25-3.15-12.18-1.11-4.09-2.06-8.19-3.55-12.16-.82-2.18-6.25-1.5-6,1a90.19,90.19,0,0,0,2.8,13.91c.5,2,1,3.88,1.58,5.81s.83,4,2.07,5.55C95.56,111.1,100.37,110,100.17,107.12Z"/><path class="cls-1" d="M196.46,80.46c-.58-2-5.67-1.61-5.92.46-.56,4.49-.4,9-1.09,13.52a57.7,57.7,0,0,1-1.35,6.37c-.26,1-.54,1.93-.85,2.88-.12.39-.25.77-.38,1.15-.07.15-.12.28-.18.4-.79.36-1.75,1.12-1.53,2l1.1,1.65c1.66,1.81,4.79.41,6-1.15,2.53-3.18,3.17-8.87,3.85-12.76C196.93,90.37,197.79,85,196.46,80.46Z"/><path class="cls-1" d="M83.5,102.2c-.68-3.45-3.47-5.58-5.56-8.31-2.42-3.17-5.38-7-6.88-10.67-.7-1.75-3.61-1.6-5.42-.54a.79.79,0,0,0-.29.18,3.48,3.48,0,0,0-.57.49l-.13.14a2.05,2.05,0,0,0-.46.92,4.74,4.74,0,0,0,.52,3.37,43.75,43.75,0,0,0,3.92,7.09c2.43,3.75,5.82,10.18,10.73,10.06C80.67,104.9,83.92,104.29,83.5,102.2Z"/><path class="cls-1" d="M210.47,83.91a82.2,82.2,0,0,1-3.91,9.65c-1.06,2.14-3.87,5.44-3.82,7.83,0,2.6,4.56,2.7,5.93,1.25,4.63-4.9,7.13-12.24,9-18.61C218.66,80.79,211.38,81.25,210.47,83.91Z"/><path class="cls-1" d="M119.07,79.29c2.45-1.65,4.45-3.87,3.28-6.14-.87-1.67-3.22-1.36-4.79-1.25a26.43,26.43,0,0,0-10.35,3c-1.65.86.27,2.21,1.5,1.7,2.25-.94,6.52-3,9-2.28,1.27-.37,1.57.26.88,1.89a9,9,0,0,1-1.48,1.42,12.2,12.2,0,0,1-4,2.07c-2,.69-1.29,2.89.73,2.22,1-.37,3.35-.65,4.22,0,.65.53.49,2.24.45,3-.07,1.55-.49,3.54-2,4.14a25.77,25.77,0,0,0-.86-4c-.32-1-2.88-.83-2.86.34a78.64,78.64,0,0,0,.78,8.24c.27,2.18.27,4.6,1.06,6.65a1.29,1.29,0,0,0,1.29.61l1.07-.1c.63-.06,1.79-.8,1.27-1.58-1.11-1.68-1-5-1.3-7,0-.18,0-.36-.08-.54,2.61-.45,4.7-4.38,5-6.9C122.25,81.64,121,80,119.07,79.29Z"/><path class="cls-1" d="M136.9,69.23a67.57,67.57,0,0,0-12.38,3.34c-1.39.56-1.06,2.14.45,2.05,3.8-.22,8-1.62,11.68-2.67C138.6,72,139.66,68.69,136.9,69.23Z"/><path class="cls-1" d="M132.14,79.61a3.59,3.59,0,0,0-3.4-1.73,8.36,8.36,0,0,0-2.66.49c-.91-.24-2.43.34-2.53,1.18a11.19,11.19,0,0,0,.52,5.07.82.82,0,0,0,.45.51c.39.57,1.25.52,1.84.37a13.67,13.67,0,0,0,2.87-1.12c.58-.21,1.17-.42,1.74-.67s.84-.71.65-1.12A2.61,2.61,0,0,0,132.14,79.61Zm-3.22,2a2.26,2.26,0,0,1-.48.55,8.45,8.45,0,0,0-1.17.39c-.15-.71-.28-1.42-.37-2.13C127.62,80,129.85,80,128.92,81.56Z"/><path class="cls-1" d="M136.58,73.26c-.51-.85-3.26-.79-2.91.47a38.53,38.53,0,0,1,.93,14.93c-.33,3-.79,5.14-3.87,6.38-2.06.83-5,2.45-7.23,2.13-1-.15-3.77,1.12-2.1,2.26,2.49,1.72,5.71-.15,8.19-1.09,2.76-1,5.64-2.08,7.13-4.83s1.46-6.09,1.64-9C138.58,80.73,138.58,76.57,136.58,73.26Z"/><path class="cls-1" d="M155.76,72.32a22.92,22.92,0,0,0-3.8-1.83,11.88,11.88,0,0,0-3.14-1.06,2.19,2.19,0,0,0-2.7.25,72.26,72.26,0,0,1-4,6.43c-1.4,1.86,1.37,2.58,2.52,1.28l.23-.28c.2-.24.38-.51.57-.76.46-.64.91-1.28,1.33-1.95s.93-1.5,1.34-2.29c.54.29,1.15.51,1.66.76a20.64,20.64,0,0,0,3.86,1.69C154.75,74.83,157.35,73.43,155.76,72.32Z"/><path class="cls-1" d="M144.74,77.3l-.08.09C144.48,77.62,144.41,77.73,144.74,77.3Z"/><path class="cls-1" d="M153,74.77c-1-.69-2.43-.1-3.48.26a17.14,17.14,0,0,0-3.8,1.79.72.72,0,0,0-.12,1.21,1.9,1.9,0,0,0,1.84.25c.9-.35,1.76-.77,2.68-1.07a21.13,21.13,0,0,0,2.69-.88C153.51,76,153.67,75.25,153,74.77Z"/><path class="cls-1" d="M154.45,93.35c.38.36-.19-.22-.21-.24-.21-.21-.41-.43-.6-.65-.7-.77-1.21-1.77-2-2.46s-3.11-.21-2.83,1.06a5.49,5.49,0,0,0,.37,1l-2.21,1a23.28,23.28,0,0,0,.51-4.8,18.87,18.87,0,0,0,2-.64c.6-.23,1.72-.56,2.05-1.18a5.62,5.62,0,0,0,1.63-6.25c-.54-1.35-1.76-1.62-3.09-1.21A22.59,22.59,0,0,0,145.68,81a1.57,1.57,0,0,0-.43.34c-.69,0-1.39.31-1.42.92-.22,4.33.63,8.35-.56,12.6a4.48,4.48,0,0,0-1,.6c-1.4,1,.12,2.14,1.36,1.81a26.5,26.5,0,0,0,6.94-3.07l.08.1c1,1.18,2.19,2.23,3.69,1C155.09,94.65,155.13,94,154.45,93.35ZM149,85.52l-.24.1c-.15,0-.29.12-.44.18-.3.12-.61.22-.91.33,0-.16,0-.33,0-.49a16.43,16.43,0,0,1,2.08-.71A6,6,0,0,1,149,85.52Zm-2-2.86c1-.29,1.88-.7,2.81-1.07l.22-.08.09.18a2.36,2.36,0,0,1,.09.52,2.83,2.83,0,0,1,0,.5,4.43,4.43,0,0,0-1.37.17c-.62.17-1.22.37-1.82.6-.05-.27-.13-.52-.19-.79A.8.8,0,0,0,147,82.66Z"/><path class="cls-1" d="M173.49,91.83c-.09-2.57-.23-5.15-.35-7.72-.17-3.63,0-7.19-4.49-7.76a11.34,11.34,0,0,0-4.1.33c0-.63-.07-1.26-.11-1.88.59-.22,1.17-.43,1.75-.66a1.55,1.55,0,0,0,.73-.15,8.69,8.69,0,0,0,1-.63c1.5-1-.32-2.23-1.52-1.79-.71.26-1.43.5-2.14.75a31.8,31.8,0,0,0-.81-4.45c-.27-1-2.65-1-2.73.09a48.53,48.53,0,0,0,0,5.53l-3.78,1.21c-1.69.55-.82,2.21.73,2a30.35,30.35,0,0,0,3.19-.7c0,.64.09,1.29.14,1.93-1.33.53-2.62,1.11-3.77,1.59-.8.34-1,.78-.89,1.16a1,1,0,0,0-.38.75c.14,3.76.18,7.58.43,11.32a.71.71,0,0,0,.16.56c.39.61,1.39.58,2.17.19a1.65,1.65,0,0,0,1-1,2.56,2.56,0,0,0,.05-.27c.07-1,.09-2,.09-3a2.52,2.52,0,0,0,.82,0l1.11-.22c.22,3.62.46,7.25.81,10.86.17,1.76,3.46.93,3.39-.6s-.14-2.8-.22-4.2c1.61,2,4.77,2.73,6.81.8C173.71,94.65,173.54,93.38,173.49,91.83Zm-5-12.73c1.27.54,1.18,3.42,1.19,4.83A14.28,14.28,0,0,0,165,85.35c0-.47-.07-.94-.1-1.41a15.69,15.69,0,0,0,3.35-1.22c.6-.32,1.07-1.09.24-1.52-1.26-.66-2.46-.14-3.75.23l-.09-2.17A6.47,6.47,0,0,1,168.49,79.1Zm-9.32,2,2-.69c0,.67.11,1.34.16,2l-1.44.41a2.3,2.3,0,0,0-.42.16C159.35,82.35,159.26,81.72,159.17,81.1Zm.89,5.89a2.23,2.23,0,0,0-.31.12c0-.69-.07-1.38-.12-2.06a2.09,2.09,0,0,0,.76-.07l1.05-.25c0,.6.08,1.19.11,1.78Zm10,7c-.35.25-2-.52-2.46-.69a2.65,2.65,0,0,0-2,.47q-.2-2.91-.41-5.82a25.16,25.16,0,0,0,4.55-2c.05,1.46.09,2.92.15,4.38A26.92,26.92,0,0,1,170,94Z"/><path class="cls-1" d="M172.85,68.44c-.4-.29-.83-.55-1.25-.81-.77-.47-1.56-.91-2.33-1.36-1.25-.73-4.07,1-2.44,2.13.84.55,1.68,1.11,2.53,1.65a11,11,0,0,0,1.1.66,3.33,3.33,0,0,0,2.14.11c.39-.07,1.11-.4,1.05-.91A1.74,1.74,0,0,0,172.85,68.44Z"/><path class="cls-1" d="M30.75,143.78c3.66-2.25,6.7-5.34,5.13-8.7C34.73,132.6,31.3,132.9,29,133a38.26,38.26,0,0,0-15.2,3.68c-2.45,1.14.26,3.23,2.07,2.55,3.32-1.22,9.64-4,13.22-2.74q2.81-.69,1.17,2.79a13.07,13.07,0,0,1-2.24,2A17.54,17.54,0,0,1,22.17,144c-2.94.89-2.05,4.12.93,3.27,1.51-.46,4.89-.73,6.11.34.91.8.57,3.28.48,4.31-.21,2.25-.94,5.11-3.19,5.89a41.5,41.5,0,0,0-1-5.88c-.41-1.54-4.12-1.38-4.17.33a111.7,111.7,0,0,0,.62,12c.26,3.18.11,6.69,1.13,9.72a1.85,1.85,0,0,0,1.83,1l1.56-.08c.91,0,2.65-1.05,2-2.21-1.52-2.5-1.18-7.31-1.47-10.17,0-.27-.05-.53-.08-.8,3.82-.49,7.08-6.06,7.65-9.7C35.23,147.39,33.52,144.85,30.75,143.78Z"/><path class="cls-1" d="M57.23,130.28a98.61,98.61,0,0,0-18.16,4.08c-2,.73-1.67,3,.53,3,5.53-.08,11.69-1.85,17.11-3.16C59.54,134.36,61.27,129.67,57.23,130.28Z"/><path class="cls-1" d="M49.69,145c-.8-1.85-2.93-2.66-4.83-2.71a11.89,11.89,0,0,0-3.89.55c-1.3-.41-3.53.34-3.74,1.55a16.63,16.63,0,0,0,.44,7.39,1.26,1.26,0,0,0,.63.77c.53.85,1.78.83,2.65.65a20.18,20.18,0,0,0,4.22-1.45c.87-.26,1.73-.53,2.58-.86.66-.26,1.25-1,1-1.59A3.81,3.81,0,0,0,49.69,145Zm-4.79,2.64a3.09,3.09,0,0,1-.73.76,13,13,0,0,0-1.72.49c-.18-1-.31-2.06-.41-3.1C43.11,145.36,46.35,145.41,44.9,147.68Z"/><path class="cls-1" d="M56.52,136.1c-.69-1.26-4.67-1.34-4.25.52a56,56,0,0,1,.43,21.71c-.66,4.29-1.46,7.4-6,9-3,1.08-7.42,3.24-10.62,2.64-1.5-.29-5.53,1.38-3.18,3.15,3.5,2.64,8.29.13,12-1.08,4.07-1.34,8.3-2.67,10.64-6.57s2.49-8.74,2.93-13C59,147.07,59.23,141,56.52,136.1Z"/><path class="cls-1" d="M84.4,135.93A32.52,32.52,0,0,0,79,133a17.17,17.17,0,0,0-4.49-1.73c-.8-.87-3.3-.74-3.93.2a107.09,107.09,0,0,1-6.16,9.07c-2.15,2.62,1.82,3.83,3.57,2l.35-.4c.31-.33.59-.71.87-1.06.71-.9,1.4-1.81,2.05-2.75s1.45-2.12,2.09-3.24c.77.45,1.63.82,2.35,1.21a29.87,29.87,0,0,0,5.51,2.69C82.79,139.5,86.65,137.64,84.4,135.93Z"/><path class="cls-1" d="M68.11,142.48l-.12.12C67.72,142.91,67.6,143.08,68.11,142.48Z"/><path class="cls-1" d="M80.19,139.31c-1.43-1.06-3.52-.3-5.06.16a25.52,25.52,0,0,0-5.63,2.36,1.05,1.05,0,0,0-.24,1.76,2.78,2.78,0,0,0,2.65.47c1.33-.45,2.61-1,4-1.38a31.94,31.94,0,0,0,4-1.13C80.91,141.08,81.19,140.05,80.19,139.31Z"/><path class="cls-1" d="M81.2,166.36c.54.54-.25-.35-.28-.37-.29-.32-.57-.64-.84-1a41.93,41.93,0,0,0-2.72-3.7c-1-1-4.48-.49-4.16,1.36a7.19,7.19,0,0,0,.47,1.54c-1.09.45-2.18.92-3.27,1.38a33.33,33.33,0,0,0,1-6.93,28.74,28.74,0,0,0,2.89-.8c.89-.3,2.53-.71,3-1.59,2.72-1.8,3.82-6,2.76-9-.71-2-2.46-2.45-4.41-1.95a32.69,32.69,0,0,0-6.47,2.47,2.47,2.47,0,0,0-.65.46c-1,0-2,.37-2.11,1.24-.58,6.28.4,12.16-1.59,18.25a6.88,6.88,0,0,0-1.54.8c-2.1,1.42,0,3.12,1.85,2.71a37.85,37.85,0,0,0,10.26-4l.12.17c1.32,1.76,3,3.36,5.29,1.71C82.05,168.28,82.15,167.32,81.2,166.36Zm-7.44-11.7-.37.12-.64.24c-.44.16-.89.29-1.34.43,0-.24,0-.48,0-.73a24.92,24.92,0,0,1,3.06-.89C74.22,154.11,74,154.39,73.76,154.66ZM71,150.38c1.41-.36,2.76-.9,4.14-1.37l.32-.11a1.06,1.06,0,0,0,.13.27,4,4,0,0,1,.1.76,5.71,5.71,0,0,1,0,.72,6.66,6.66,0,0,0-2,.16,26.4,26.4,0,0,0-2.67.77c-.07-.39-.16-.77-.24-1.16Z"/><path class="cls-1" d="M108.92,165.32c0-3.74,0-7.48,0-11.22,0-5.28.38-10.44-6-11.54a16.58,16.58,0,0,0-6,.24c0-.92,0-1.83,0-2.75l2.58-.83a2.26,2.26,0,0,0,1.07-.19,11.27,11.27,0,0,0,1.42-.84c2.23-1.43-.33-3.26-2.09-2.71-1,.34-2.11.65-3.16,1a44.43,44.43,0,0,0-.91-6.5c-.32-1.45-3.77-1.66-4,0a71.32,71.32,0,0,0-.4,8c-1.85.5-3.7,1-5.55,1.52-2.5.71-1.34,3.16.92,2.89a44.29,44.29,0,0,0,4.67-.81c0,.93,0,1.87.09,2.8-2,.69-3.86,1.45-5.57,2.08-1.17.44-1.51,1.06-1.36,1.63a1.38,1.38,0,0,0-.59,1.06c0,5.46-.22,11-.08,16.45a1,1,0,0,0,.2.81c.52.91,2,.94,3.14.42a2.39,2.39,0,0,0,1.52-1.42,1.83,1.83,0,0,0,.09-.39c.16-1.44.26-2.89.32-4.36a3.31,3.31,0,0,0,1.19,0c.54-.07,1.08-.15,1.62-.25.1,5.28.22,10.55.51,15.81.14,2.56,5,1.57,5-.66,0-2,0-4.07-.07-6.11,2.22,3,6.75,4.26,9.84,1.59C109.06,169.43,108.9,167.57,108.92,165.32Zm-6.47-18.77c1.81.86,1.5,5,1.44,7.07-2.21-.07-4.71,1-6.87,1.78,0-.68,0-1.37-.07-2.05a23.08,23.08,0,0,0,5-1.57c.88-.42,1.61-1.51.43-2.19-1.78-1-3.55-.36-5.44.11v-3.16C98.65,146.13,100.94,145.83,102.45,146.55ZM88.8,148.87l2.88-.87c0,1,.07,1.94.11,2.91l-2.11.5a3.47,3.47,0,0,0-.62.21C89,150.7,88.91,149.78,88.8,148.87Zm.94,8.6a2.75,2.75,0,0,0-.46.16c0-1,0-2,0-3a3.29,3.29,0,0,0,1.11,0l1.54-.3c0,.87,0,1.73.05,2.59Q90.84,157.16,89.74,157.47Zm14,10.82c-.52.35-2.81-.87-3.52-1.14a3.85,3.85,0,0,0-2.89.56c-.07-2.83-.15-5.65-.24-8.48a35.21,35.21,0,0,0,6.72-2.6q0,3.18,0,6.36C103.79,163.36,104,168.12,103.78,168.29Z"/><path class="cls-1" d="M109.44,131.35c-.57-.45-1.18-.84-1.78-1.25-1.08-.73-2.19-1.42-3.29-2.12-1.77-1.14-6,1.28-3.66,2.94,1.18.85,2.36,1.72,3.56,2.55a14.8,14.8,0,0,0,1.55,1,4.78,4.78,0,0,0,3.1.29c.57-.07,1.64-.5,1.58-1.25A2.51,2.51,0,0,0,109.44,131.35Z"/><path class="cls-1" d="M121.22,170a1.8,1.8,0,0,1-.2-.18C120.75,169.63,120.65,169.56,121.22,170Z"/><path class="cls-1" d="M143.32,147.17a2.75,2.75,0,0,0-2.54-1.35,4.5,4.5,0,0,0-1.58.36c-1.83.37-3.68.71-5.53,1.06l0-.13c-.23-.9-.45-1.81-.68-2.73l.63-.14a16.64,16.64,0,0,0,4-1.26c1-.51,1.67-1.55,1-2.57a3.07,3.07,0,0,0-3-1,25.63,25.63,0,0,0-3.78.69l-.11,0a19.92,19.92,0,0,0-2.39-4.77c1-.59,2-1.19,3-1.8a21.91,21.91,0,0,0,3.62-2.37,1.72,1.72,0,0,0,.27-2.5,3.38,3.38,0,0,0-3.23-.73,17.23,17.23,0,0,0-3.88,1.9c-1.16.64-2.3,1.31-3.45,2l-3.33,1.91a22.52,22.52,0,0,0-3.76,2.3,2,2,0,0,0-.2,2.84,3.51,3.51,0,0,0,3.47.74,14,14,0,0,0,3.33-1.79c.42,1.17.8,2.36,1.15,3.56-1.44.34-2.87.68-4.27,1.12-1,.31-2.16,1.07-1.85,2.27a1.91,1.91,0,0,0,.78,1.05l.22.13a2.43,2.43,0,0,0,.37.16l0,0h0a3.28,3.28,0,0,0,1.4.19c.27,0,.53-.06.8-.1l1.85-.29c.59-.1,1.17-.21,1.76-.33.07.31.15.62.23.93.14.59.27,1.19.41,1.79a75.19,75.19,0,0,0-11.51,3.12c-.83.31-1.57,1.16-1,2a3,3,0,0,0,3,.88c3.45-.59,6.9-1.22,10.34-1.84a39.81,39.81,0,0,1,.48,4.36,20.89,20.89,0,0,1-1.36,9.59,5.34,5.34,0,0,1-.66,1.14,3.57,3.57,0,0,1-.28.27l-.33-.13-.94-.33a6.5,6.5,0,0,0-2.79-.48c-1.63.15-3.43,1.53-1.94,2.92.26.19.67.5.78.57l1.21.74a9.82,9.82,0,0,0,2.48,1.15,6.39,6.39,0,0,0,6.38-1.82c2.65-2.89,3.24-7.44,3.36-11.2a36.85,36.85,0,0,0-.65-7.84c.64-.12,1.27-.24,1.91-.38,2-.43,4.53-.77,6.22-2C143.21,148.62,143.71,147.8,143.32,147.17Z"/><path class="cls-1" d="M159.63,155.68a58,58,0,0,0-.75-7.56c-.21-1.19-.46-2.37-.73-3.54a21.86,21.86,0,0,0-.67-3.57,2,2,0,0,0-1.54-1,11,11,0,0,0,2-6.13c0-1.27-1.72-1.82-2.77-1.74s-2.51.66-2.6,2a6.08,6.08,0,0,1-1.31,3.2c-.76,1.16-1.6,2.27-2.39,3.41s-1.43,2.07-2.2,3.06a4.21,4.21,0,0,1-.41.48c-.18.19-.37.37-.57.55s-.44.35-.65.54a5.92,5.92,0,0,0-1,1.42.86.86,0,0,0,0,.78h0a1,1,0,0,0,.16.23l.09.13a2.1,2.1,0,0,0,.45.35l.11.06c1.11,1,3.06.68,4.24,0a8.5,8.5,0,0,0,2-1.53,17.39,17.39,0,0,0,1.28-1.56c0,.29.08.57.13.84.32,1.95.59,3.91.77,5.88s.28,3.78.29,5.68c0,1,0,1.89,0,2.84,0,.44,0,.87-.05,1.31s0,.58-.05.87c0,.07,0,.14,0,.21a1.73,1.73,0,0,0-.22.31c-.76,1.55,1.05,2.74,2.39,2.9a3.46,3.46,0,0,0,3.81-2.43,20.34,20.34,0,0,0,.27-4.06C159.7,158.29,159.68,157,159.63,155.68Z"/><path class="cls-1" d="M186,153.15a2.27,2.27,0,0,0-.39-.53l0,0a2.48,2.48,0,0,0-1.65-.85,2.89,2.89,0,0,0-1,0,22.45,22.45,0,0,0-3.14.76c-.87.24-1.76.44-2.64.65l-.48.1c0-.29,0-.58,0-.86,0-1,0-1.92,0-2.87a19,19,0,0,0,2.26-.22,19.5,19.5,0,0,0,2.91-.68,7.21,7.21,0,0,0,3.09-1.57,2.06,2.06,0,0,0,.73-1.54,1.94,1.94,0,0,0-.94-1.41,3.37,3.37,0,0,0-.61-.28h0c-1.35-.54-2.58-.05-3.83.41-.68.25-1.38.47-2.08.66-.34.1-.68.18-1,.25l-.51.11c.9-.21.39-.11-.05,0,0-3-.1-6-.3-9a1.54,1.54,0,0,0-.26-.78c1-.25,2-.5,3-.77a24.46,24.46,0,0,0,5.11-1.6,2.17,2.17,0,0,0,1.13-2.71,3.06,3.06,0,0,0-3-1.41,24.58,24.58,0,0,0-5.3,1.3c-1.55.42-3.1.83-4.66,1.23s-3.11.78-4.66,1.17l-.86.2c-.09-1.05-.19-2.1-.28-3.15-.21-2.49-5.23-2.24-5.34.24-.1,2.25-.15,4.51-.19,6.77,0,.21,0,.41,0,.62s0,.8,0,.18a4.69,4.69,0,0,1-.18,1.23c0,.16-.18,1.09-.34,1.15.15-.34.16-.38,0-.14a2.59,2.59,0,0,1-.14.29l-.44.82a1.7,1.7,0,0,0,.6,2.43,3.75,3.75,0,0,0,3.42.1c2.25-1,2.86-3.46,3-5.73.82-.18,1.63-.4,2.41-.57l1.68-.4c-.31,5.29-.3,10.57-.35,15.86,0,.79,0,1.58,0,2.37a1.54,1.54,0,0,0,0,2.61c0,1,0,1.93,0,2.9a53.41,53.41,0,0,1-.26,6,1.09,1.09,0,0,0-.49,1.51l.23.67c.63,2.86,5.12,2.64,6,0s.63-5.29.62-7.89c0-1,0-1.93,0-2.9l1.33-.23a28.9,28.9,0,0,0,6.74-1.79A2.08,2.08,0,0,0,186,153.15Z"/><path class="cls-1" d="M235.51,140.42a4.63,4.63,0,0,0-2.58-.13,3.2,3.2,0,0,0-1.55.83,33,33,0,0,1-3.8,1,21.27,21.27,0,0,0,1.12-3.56c.1-.44.19-.89.26-1.35,1.22-.25,2.68-.69,3-2,.45-1.62-1.24-2.41-2.64-2.46a33.46,33.46,0,0,0-.44-6.1c-.33-2.09-4.78-2.13-4.93,0s-.12,4.55-.27,6.81l-4.4.72-.47.07c-.2-1.19-.4-2.38-.62-3.57a2.4,2.4,0,0,0-2.67-1.67c-1,.06-2.59.58-2.55,1.85,0,1.44.14,2.88.29,4.32a3.34,3.34,0,0,0-2.23,1.21s0,.07,0,.1a3.12,3.12,0,0,0-1.39-.59,3.06,3.06,0,0,0-3.24,1.45l-.11.22a32.16,32.16,0,0,1-2.5,3.75,69,69,0,0,0-1.14-9,2.53,2.53,0,0,0-2.83-1.77c-1,.05-2.74.74-2.62,2.06a96.62,96.62,0,0,1,.65,14.12,1.34,1.34,0,0,0-.08-.26l0-.05a1.11,1.11,0,0,0-.17-.27h0a.48.48,0,0,0-.09-.11l0,0-.19-.21-.45-.38c-.43-.38-.89-.71-1.34-1.08l.49.4-.65-.52a16.52,16.52,0,0,1-1.59-1.54,2.83,2.83,0,0,0-1.7-.81,3.88,3.88,0,0,0-1.79.21,2.56,2.56,0,0,0-1.28.88,1.52,1.52,0,0,0-.19,1.53,11.67,11.67,0,0,0,1.9,2.41,11,11,0,0,0,1.42,1.11,7,7,0,0,0,2.43.92l.73,0L196,149a2.92,2.92,0,0,0,1.38-.75,1,1,0,0,0,.33-.44,1.06,1.06,0,0,0,.11-.21c-.06.83-.14,1.65-.25,2.48a37.1,37.1,0,0,1-1.88,7.64,23.94,23.94,0,0,1-1.58,3.41c-.29.53-.6,1-.93,1.55a9.28,9.28,0,0,1-.56.83l-.27.33-.05,0a2.57,2.57,0,0,0-1.78,1.23,1.58,1.58,0,0,0,.69,2.1,5,5,0,0,0,6-.72,15.46,15.46,0,0,0,2.79-4.2A33.61,33.61,0,0,0,203,154c.14.29.28.58.41.88.51,1.16.84,2.61,2,3.29a3.62,3.62,0,0,0,3.16.2,2.31,2.31,0,0,0,1.61-2.07,7.26,7.26,0,0,0-1.12-3.36,24.74,24.74,0,0,0-1.5-2.72,27.07,27.07,0,0,0-2-2.81c-.16-.19-.34-.38-.51-.57a5.86,5.86,0,0,0,1.19-.79,15.62,15.62,0,0,0,3.07-3.37,21.74,21.74,0,0,0,2.08-4,3.51,3.51,0,0,0,2.32.69h.12c.12.83.24,1.66.38,2.48a17.2,17.2,0,0,0,.63,3.18l-1.66.35c-1.15.26-2.95.69-3.35,2a1.62,1.62,0,0,0,.81,1.85c.57.37,2.07.8,2.69.35.12.24.31.3.59.17l.83-.11,1.24-.18c1-.14,1.91-.31,2.87-.49,2.17-.42,4.34-.87,6.49-1.37,1.89-.43,3.77-.93,5.63-1.45,2.13-.59,4.33-1,5.77-2.88C237.61,142.16,236.62,140.76,235.51,140.42ZM223,138.26a17.1,17.1,0,0,1-1.76,4.26c-.21.36-.43.71-.65,1.06-.12-.85-.37-1.71-.53-2.51s-.29-1.53-.43-2.3C220.74,138.62,221.86,138.44,223,138.26Z"/><path class="cls-1" d="M217.49,152.85c-1.2-.14-2.74.21-3.24,1.46-.69,1.73-1.35,3.49-1.87,5.28a34.55,34.55,0,0,0-1.26,5.39,2,2,0,0,0,.48,1.76,3,3,0,0,0,1.88.89c1.35.11,3.18-.47,3.52-2,.42-1.78.68-3.59,1.09-5.37s.85-3.51,1.39-5.23C219.86,153.84,218.56,153,217.49,152.85Z"/><path class="cls-1" d="M237.43,162.29c-.07-.66-.17-1.32-.29-2a23.37,23.37,0,0,0-2.87-7.76,3.08,3.08,0,0,0-3.49-1.18c-1.07.32-2.34,1.27-1.78,2.55.43,1,.82,2,1.17,3,.15.45.29.91.42,1.37,0,.1.07.26.08.3.07.27.14.55.2.82a26.73,26.73,0,0,1,.49,2.93c0,.42.08.85.1,1.27a2.51,2.51,0,0,0-.76.87,1.76,1.76,0,0,0,.75,2.24,4,4,0,0,0,6-2.14A7.16,7.16,0,0,0,237.43,162.29Z"/><path class="cls-1" d="M260.88,134.82a3.35,3.35,0,0,0-1.56-.45c-1,0-2.58.33-2.88,1.46a15.73,15.73,0,0,1-.93,2.51c-.27.52-.57,1-.88,1.51-.18.28-.37.55-.56.82l-.3.39,0,0-.05,0-.17.18c0-.78,0-1.55-.11-2.33a8.18,8.18,0,0,0-1.15-4.26c-.78-1.06-4-1.1-4.41.37a13,13,0,0,0-.23,3.93c0,1.34,0,2.67,0,4,0,.82-.11,1.64-.19,2.46l-.62-.51.5.41a10,10,0,0,1-1.66-1.66,2,2,0,0,0-.77-.53,2.39,2.39,0,0,0-1-.3l-.76,0a2.59,2.59,0,0,0-1.07.25,2.56,2.56,0,0,0-1.3.94,1.63,1.63,0,0,0-.17,1.61,13.08,13.08,0,0,0,.82,1.27,4.84,4.84,0,0,0,.64.78,11.26,11.26,0,0,0,1.2,1,4.52,4.52,0,0,0,.7.34c.12.06.24.13.37.18a1.82,1.82,0,0,0,.73.17l.77,0,.14,0a4.2,4.2,0,0,0,.87,0c-.07.37-.14.74-.22,1.1a44.53,44.53,0,0,1-2.16,7.17c-.81,2-1.6,4.1-3.48,5.29s-.05,3.07,1.42,3.23c3.67.41,5.59-2.14,7-5.14a46.84,46.84,0,0,0,3-8.6l.07.15c.19.38.36.77.55,1.16a2.87,2.87,0,0,0,1,1.19,3.87,3.87,0,0,0,1.4.47,4.59,4.59,0,0,0,1.73-.19c.74-.17,1.86-1,1.93-1.82a1.77,1.77,0,0,0-.11-1.22,1.73,1.73,0,0,0-.19-.28l-.09-.12c-.33-.61-.61-1.24-.95-1.85-.48-.83-1-1.63-1.56-2.42-.3-.43-.61-.83-.93-1.22a9.5,9.5,0,0,0,1.54-.92,11.52,11.52,0,0,0,2.52-2.69,14.84,14.84,0,0,0,1.65-3.16,15.25,15.25,0,0,0,.8-3.41C261.79,135.61,261.23,135,260.88,134.82Z"/><path class="cls-1" d="M291,142.41c-.37-1.31-1.79-1.66-3-1.65l-.48,0h0l-.08,0a5,5,0,0,0-.76.12c-2.55.4-5.1.83-7.65,1.26.12-.12.24-.23.35-.36a10.72,10.72,0,0,0,2.16-3.58,7.94,7.94,0,0,0,.37-2,6,6,0,0,0-.27-1.88c-.1-.4-.67-.78-1.08-1a7.1,7.1,0,0,0,1.57-.61c1.09-.6,1.75-1.93.81-3a3,3,0,0,0-2.1-.88,17.4,17.4,0,0,0-5.09.76,2.65,2.65,0,0,0,.4-.24,2.13,2.13,0,0,0,.95-1.25,1.25,1.25,0,0,0,0-.69A2,2,0,0,0,277,127a1.55,1.55,0,0,0-.31-.46,5,5,0,0,0-1.35-1,10.74,10.74,0,0,0-1.52-.66,10.87,10.87,0,0,0-2.71-.55,3.88,3.88,0,0,0-2.1.31,2.44,2.44,0,0,0-1.07,1,.78.78,0,0,0-.16.49,1.09,1.09,0,0,0,.1.77,2.17,2.17,0,0,0,1.32,1.09,8.39,8.39,0,0,1,1.06.38,9.38,9.38,0,0,1,1,.56c.36.25.71.52,1.09.74a3.71,3.71,0,0,0,1.59.47l-2.12.43L264,132.18c-.93.21-2.1,1-1.82,2.1a2.51,2.51,0,0,0,2.69,1.48l.92-.11a1.59,1.59,0,0,0-.18.27,4,4,0,0,0-.23,1.69c0,.42,0,.84,0,1.26.05.83.09,1.66.16,2.49a5.29,5.29,0,0,0,.76,2.73,23.8,23.8,0,0,0-6,1.27,1.66,1.66,0,0,0-1.18,1.77c.21.87,1.1,1.19,1.89,1.38,2.22.52,4.88,0,7.12-.26s4.67-.54,7-.87,4.49-.67,6.73-1a46.24,46.24,0,0,0,7.2-1.39C290.16,144.6,291.32,143.68,291,142.41Zm-17.33-7.78c1.07-.17,2.15-.37,3.22-.56a1.56,1.56,0,0,0-.38,1c0,.12,0,.25,0,.37a10.39,10.39,0,0,1-.57,2,11.9,11.9,0,0,1-1,1.62l-.31.31c-.25.26-.52.5-.79.74s-.52.41-.78.62h0l-.52.36-.23.15c-.16.1-.31.22-.47.33-.1-.78-.13-1.58-.23-2.35-.06-.51-.12-1-.2-1.54-.05-.26-.08-.51-.13-.76a2.92,2.92,0,0,0-.7-1.65l-.26-.18C271.35,135,272.5,134.81,273.64,134.63Z"/><path class="cls-1" d="M286,163.12a13.18,13.18,0,0,0,1.31-4.38c.25-2.32.08-5-1.42-7-1.9-2.44-5.31-1.8-8-1.5a56.49,56.49,0,0,0-9.14,1.55,3.57,3.57,0,0,0-1.32.66,4,4,0,0,0-1,.29,2.24,2.24,0,0,0-1.2,1.27,14.24,14.24,0,0,0,0,3.13c0,.79,0,1.58,0,2.37s-.14,1.58-.27,2.37-.42,1.73-.57,2.61a2.21,2.21,0,0,0,1,2.22,1.36,1.36,0,0,0,.63.87c1.63,1.06,3.93.94,5.81.93,1.66,0,3.32-.07,5-.2,1-.08,2-.18,3-.29a5.71,5.71,0,0,0,1-.13l.91-.11c1.85-.25,5.19-.28,5.82-2.48C287.85,164.18,287,163.45,286,163.12Zm-15.49,1.4a23.26,23.26,0,0,0,.73-5.16,23.63,23.63,0,0,0,0-2.66,12.45,12.45,0,0,0-.17-1.35l0-.13c2.32-.16,4.62-.47,6.93-.69l1.86-.16,1-.08h.09l.18.38.06.18,0,.16a10.6,10.6,0,0,1,.19,1.5c0,.23,0,.47,0,.7,0,.07,0,.6,0,.66a13.38,13.38,0,0,1-.64,2.8l0,.13a.67.67,0,0,0-.06.12c-.14.28-.27.56-.42.83a9.12,9.12,0,0,1-.76,1.18,4.71,4.71,0,0,1-.69.75c-.67.09-1.35.19-2,.27-1.63.19-3.27.35-4.91.48Z"/></svg>