<svg id="圖層_1" data-name="圖層 1" xmlns="http://www.w3.org/2000/svg" viewBox="0 0 50 55"><defs><style>.cls-1{fill:#984a30;}</style></defs><rect class="cls-1" x="1.59" y="2.87" width="46.81" height="4.92"/><rect class="cls-1" x="1.59" y="15.44" width="46.81" height="4.92"/><rect class="cls-1" x="1.59" y="28.02" width="46.81" height="4.92"/><path class="cls-1" d="M3.86,40.18H5.65l2.26,6.29c.27.81.54,1.63.83,2.45h.08c.27-.82.53-1.64.8-2.45l2.24-6.29h1.79V51.92H12.26V45.43c0-1,.11-2.44.19-3.46h-.06l-.93,2.67-2.22,6.1h-1L6,44.64,5.09,42H5c.06,1,.17,2.45.17,3.46v6.49H3.86Z"/><path class="cls-1" d="M16.85,40.18h6.77v1.26H18.34v3.68h4.45v1.27H18.34v4.27H23.8v1.26H16.85Z"/><path class="cls-1" d="M26.26,40.18h1.53l4.28,7.41L33.32,50h.08c-.08-1.18-.2-2.49-.2-3.71V40.18h1.41V51.92H33.09l-4.27-7.41L27.55,42.1h-.06c.06,1.18.18,2.43.18,3.66v6.16H26.26Z"/><path class="cls-1" d="M37.76,47.07V40.18h1.49v6.94c0,2.84,1.2,3.72,2.72,3.72s2.8-.88,2.8-3.72V40.18H46.2v6.89c0,3.78-1.83,5.06-4.23,5.06S37.76,50.85,37.76,47.07Z"/></svg>