<svg id="圖層_1" data-name="圖層 1" xmlns="http://www.w3.org/2000/svg" viewBox="0 0 170 170"><defs><style>.cls-1{fill:#fff;}</style></defs><path class="cls-1" d="M77.63,130a7.56,7.56,0,0,0-3.92-2.23,10.09,10.09,0,0,0-4.6.28c-2.78.8-5.17,2.88-5.27,5.93a5.27,5.27,0,0,0,1.72,4.14,6.19,6.19,0,0,0,2.51,1.33.65.65,0,0,0,.21.07h.19a4.36,4.36,0,0,0,.72,0,16,16,0,0,0,3.8-.4,8.3,8.3,0,0,0,4-2,5.94,5.94,0,0,0,2-3.58A4.52,4.52,0,0,0,77.63,130Zm-1.93,5.93c-1.65,1.78-4.15,1.6-6.38,1.82a2.56,2.56,0,0,1-.46-.11,4.18,4.18,0,0,1-1.28-.69,4.05,4.05,0,0,1-1.51-2.61,4,4,0,0,1,2.84-4.38,8.28,8.28,0,0,1,3.24-.46,5.62,5.62,0,0,1,3.21,1.41,3.48,3.48,0,0,1,1.4,2.56A3.68,3.68,0,0,1,75.7,135.89Z"/><path class="cls-1" d="M74.44,132.45a2.46,2.46,0,0,0-2.39-1.19,4,4,0,0,0-2.86,1.1,2.49,2.49,0,0,0-.61,1.13,1.57,1.57,0,0,0-.2.46,1.46,1.46,0,0,0,.4,1.4,2.37,2.37,0,0,0,1.57.59,5.76,5.76,0,0,0,1.49-.15,4.39,4.39,0,0,0,1.55-.64A2.33,2.33,0,0,0,74.44,132.45Z"/><path class="cls-1" d="M101.51,128.34a7.66,7.66,0,0,0-3.93-2.23,10,10,0,0,0-4.6.29c-2.78.79-5.16,2.87-5.27,5.92a5.28,5.28,0,0,0,1.73,4.14,6.08,6.08,0,0,0,2.5,1.33.86.86,0,0,0,.21.07h.19a3.54,3.54,0,0,0,.72,0,16.12,16.12,0,0,0,3.81-.4,8.3,8.3,0,0,0,4-2,6,6,0,0,0,2-3.59A4.59,4.59,0,0,0,101.51,128.34Zm-1.93,5.93c-1.66,1.79-4.15,1.6-6.38,1.83a4.05,4.05,0,0,1-.47-.12,4.13,4.13,0,0,1-1.27-.69,4,4,0,0,1,1.32-7,8.13,8.13,0,0,1,3.24-.47,5.64,5.64,0,0,1,3.22,1.41,3.47,3.47,0,0,1,1.39,2.56A3.63,3.63,0,0,1,99.58,134.27Z"/><path class="cls-1" d="M98.32,130.83a2.49,2.49,0,0,0-2.4-1.19,4,4,0,0,0-2.86,1.1,2.68,2.68,0,0,0-.61,1.14,1.79,1.79,0,0,0-.19.45,1.41,1.41,0,0,0,.4,1.4,2.28,2.28,0,0,0,1.56.59,5.43,5.43,0,0,0,1.5-.15,4.34,4.34,0,0,0,1.54-.64A2.34,2.34,0,0,0,98.32,130.83Z"/><path class="cls-1" d="M121.57,124.81c2.48-2.84,5.19-6.56,5.25-10.48.12-8.07-10.13-10.12-16.31-9a27.67,27.67,0,0,0-4.88,1.38,15.56,15.56,0,0,0-5.95-3.34,32,32,0,0,0-10.21-1.78A33.49,33.49,0,0,0,70.74,107a16.29,16.29,0,0,0-2.68-.65c-8.61-1.32-17.33,3.77-22.52,10.38-2.48,3.17-3.89,7.27-1.87,11.06,1.9,3.57,5.52,5.17,9.41,5.44h0a31.29,31.29,0,0,0-2.24,9.15c-.82-.38-1.63-.79-2.42-1.21A39,39,0,0,1,40.89,136c-4.47-4-6.51-9.27-7-15.17a35.26,35.26,0,0,1,2.27-15.55A34.66,34.66,0,0,1,40,98.11c1.46-2.11,3.4-3.88,4.79-6,4.86-.76,9.72-1.63,14.56-2.53,1-.18,2.36-1.1,2.28-2.28l-.39-5.85a49.34,49.34,0,0,0,8.33-2.6c.75-.31,1.64-1,1.64-1.89,0-3.39-.12-6.77-.41-10.15-.14-1.69-.33-3.37-.55-5.05-.16-1.27-.09-3-.66-4.19-1.14-2.31-4.44-1-6.33-.64l-.72.16c2.28-6.94,1.75-14.94,1.43-22.11-.12-2.53.83-6.64-2.5-7.07a23.31,23.31,0,0,0-10.85,1.45,1.74,1.74,0,0,0-.51.28,1.3,1.3,0,0,0-.85.48c-1.15,1.94-.76,4.37-.7,6.57.07,2.38.16,4.77.37,7.14.2,2.21.44,4.41.69,6.61,0,.37.06.76.09,1.18a19.84,19.84,0,0,0-3.61-.7c-1.9-.3-4.17-.83-6,0a5.17,5.17,0,0,0-2.62,3.35,29.54,29.54,0,0,0-6.5.49c-1.73.25-3.46.75-4.43,2.32s-1,3.57-1,5.26c-2.46.32-6.12,1.38-7,3.54-.6,1.57.21,4.29.64,5.81A29.36,29.36,0,0,0,21.4,77c1.29,2.49,2.73,6.57,5.93,6.87A7.93,7.93,0,0,0,31,83.17a11.71,11.71,0,0,0,.3,2.9,1.6,1.6,0,0,0,.1.23c0,.17,0,.34,0,.52a15.65,15.65,0,0,0,.41,4.26c.94,2.75,4,2.27,6.28,2l1.79-.25c-3.47,3-6,7.84-7.64,11.72a37.34,37.34,0,0,0-2.79,17.78c.62,6.54,2.93,12.32,8.09,16.56a42.91,42.91,0,0,0,8.47,5.35,37.38,37.38,0,0,0,4.85,2.2c0,.4.09.8.16,1.2.58,3.4,2.52,9.26,6.93,7.82a1.44,1.44,0,0,0,1-.91c.31-1.6-.84-2.92-1.52-4.33a15.65,15.65,0,0,1-1.3-4.06.6.6,0,0,0,.09-.81A2.75,2.75,0,0,0,56,145c-.45-4,.4-7.93.44-11.91,0-.61-.46-.92-1-1,.34-.46.3-.93-.6-1.18-4.37-1.21-9.17-5.08-7.06-10.14,1.71-4.11,6.63-7.7,10.6-9.41a17.1,17.1,0,0,1,8.37-1.18c-1.73,1.65-3.14,3.66-3,6,.2,4.05,4.74,3.65,7.56,2.81,3-.89,6.1-3.71,5.08-7.14A6.11,6.11,0,0,0,74.39,109a27.29,27.29,0,0,1,23.29-1.27A16.31,16.31,0,0,1,100.4,109l-1.68.86c-2.44,1.27-5.55,3.62-3.83,6.74s5.86,2.62,8.3.93,4.52-4.58,4.15-7.5a18.14,18.14,0,0,1,4.6-1c4.92-.33,11.93,2.74,8.86,8.68-2.43,4.71-6.88,7.38-10,11.46a1.09,1.09,0,0,0,.37,1.73,1.63,1.63,0,0,0,.22.37,20,20,0,0,1,4.35,8.12c.79,3.61-.08,6.8-.38,10.38-.19,2.31,3.68,1.22,4.37,0,3.46-6,1.49-15.38-3.67-20,.5-.34,1-.72,1.43-1.08A28.68,28.68,0,0,0,121.57,124.81ZM33.05,78.31a2.63,2.63,0,0,0-1.76,1,15.33,15.33,0,0,1-1.83.88c-1,.4-.95.27-1.55-.61s-1.21-2-1.78-3a32.63,32.63,0,0,1-3.76-10.67,20.43,20.43,0,0,1,3.06-1.55,29.08,29.08,0,0,0,.49,4.73c.57,3,1.55,8.67,5.35,9.13a6.26,6.26,0,0,0,2.11-.13Zm-.47-3.69c-.35-.19-.81-1.64-.94-2a27.6,27.6,0,0,1-1.35-4.34,26.14,26.14,0,0,1-.4-9.33c.13-.87.06-1,.78-1.4a6.72,6.72,0,0,1,2-.26,34.62,34.62,0,0,0,4.23-.75c-.3,1.77-.38,3.58-.53,4.89-.42,3.76-.73,8,1.28,11.35-1.06.46-2.08,1-3,1.36C34.1,74.36,33.15,74.94,32.58,74.62Zm3.46,15c-.6-.7-.42-3.31-.47-4.2a21.89,21.89,0,0,0-.21-2.82,17.23,17.23,0,0,0,0-1.76c.68-.41,1.32-.8,1.92-1.13A2,2,0,0,0,38.33,78c0-.56,0-1.11,0-1.66,1-.35,2-.7,2.93-1.14,2.46.4,5.43-.38,7.72-.64a2.71,2.71,0,0,0,2.29-2.43c.08-3.36.27-6.75.21-10.11,0-2.54-4.46-1.23-4.62.89-.2,2.69-.26,5.4-.34,8.11l-.31,0c-1,.12-3.11.74-3.92.11C40.84,70.1,40.64,67,40.6,65.35A41.78,41.78,0,0,1,41,59.54c.17-1.62.21-4.12,1-5.81a21.84,21.84,0,0,1,4.19.65,9.09,9.09,0,0,0,3.8.23A4.57,4.57,0,0,0,51.07,57a1.81,1.81,0,0,0,2.48-.52c.64-1.84,0-3.81-.18-5.72-.27-2.51-.45-5-.57-7.54-.12-2.32-.28-4.64-.36-7,0-1.52.25-3.61-.26-5.17,1.08,0,2.13.05,3.25,0a21,21,0,0,1,4.13-.1,17.06,17.06,0,0,1,.07,2.12c0,1.25.11,2.49.17,3.74.11,2.37.22,4.75.2,7.13,0,4.63-1,9-1.46,13.59a1,1,0,0,0,.06.5,26,26,0,0,0-4,1.43,2,2,0,0,0-.43.25,2.25,2.25,0,0,0-1.91,1c-.76,1.79-.54,3.85-.57,5.77,0,1.41-.54,3.88.47,5.08s3.08.67,4.47.35c2.24-.51,4.63-.78,6.52-2.14.79-.57.93-1.73-.17-2A7,7,0,0,0,59,68s-2,.68-3,.89a.79.79,0,0,0,0-.13c0-.36,0-.72,0-1.09,0-1.88.32-4.32-.19-6.28a57.91,57.91,0,0,0,6.62-1.12,17.13,17.13,0,0,1,3.57-.67c.55-.13.54-.09,0,.11-.44,0-.56.23-.36.61a8.25,8.25,0,0,0,.29,2.1,114.45,114.45,0,0,1,.92,14c-1.84.66-3.71,1.22-5.62,1.7A3,3,0,0,0,59,79.63a2.42,2.42,0,0,0-1.63.86c-1.06,1.54-.82,3.84-.6,5.89q-6.93,1.31-13.88,2.47C41.54,89.07,36.88,90.56,36,89.59Zm34.43,25.88c-1.3.56-2.71.35-2-1.38a6.38,6.38,0,0,1,1.92-2.45,4.7,4.7,0,0,1,1,1.22A1.65,1.65,0,0,1,70.47,115.47Zm28.82-1.41c-.08-.53,1.31-1.26,2.7-1.87C101.4,113.69,99.5,115.44,99.29,114.06Z"/><path class="cls-1" d="M107.12,47.08c-1.66-.47-2.94,0-4.59.35q-2.73.63-5.47,1.22c-3.48.75-7,1.3-10.47,2.28-2.46.71-3.13,3.84.06,3.52a70.09,70.09,0,0,0,7.68-1.33,1.07,1.07,0,0,0-.28.43c-1.23,3.7-1,8.1-1.37,12S92,73.46,91.43,77.4c-.44,2.83,3.88,2,4.57,0,1.25-3.7,1.13-8.2,1.43-12.08s1.2-8.42.28-12.16a1,1,0,0,0-.57-.67l.16,0c3.31-.71,7.41-1,10.16-3A1.28,1.28,0,0,0,107.12,47.08Z"/><path class="cls-1" d="M113.67,60.74c-2.92-2-8.63-1.14-10.63,1.75a.67.67,0,0,0,0,.89c-2,2.11-3.94,5.39-1.67,7.61,2.71,2.65,8.28.84,10.78-1.2C114.49,67.9,116.84,63,113.67,60.74Zm-4.09,6.88c-.93.87-4.44,2.19-4.81.25-.3-1.56,1.42-3.6,2.43-4.57a1.39,1.39,0,0,0,.32-.41,4.35,4.35,0,0,1,2-.19C112.08,63.09,110.82,66.44,109.58,67.62Z"/><path class="cls-1" d="M130.79,48.69c-2.69-1.45-5.73-.79-8.48.21-1-.58-3,.25-3.23,1.34-.84,5.19-.06,10.9.12,16.14.08,2.57.19,5.14.28,7.71.07,1.86-.47,4.75,1.2,6a2.29,2.29,0,0,0,2.91-.65c1.19-1.86.61-4.55.54-6.67l-.24-6.67a19.32,19.32,0,0,0,3.8-2.81c2.35-2,5-4.54,5.79-7.66A5.87,5.87,0,0,0,130.79,48.69Zm-2.6,8.62a20,20,0,0,1-4,4.13l-.43.32c-.06-1.33-.11-2.66-.16-4a53.82,53.82,0,0,0-.43-6.7c1.82-.42,3.9-.66,5.26.71C130,53.36,129.29,55.71,128.19,57.31Z"/><path class="cls-1" d="M110.32,20.81a81.66,81.66,0,0,0-.44-9.39c-.19-1.45-3.24-.67-3.44.5A59.88,59.88,0,0,0,105.85,22c0,1.57,0,3.14.06,4.7s-.2,2.81,1,3.85a2.25,2.25,0,0,0,2.9-.64C111.26,27.49,110.37,23.57,110.32,20.81Z"/><path class="cls-1" d="M112.64,93.76c-.25-2.72-.63-5.39-1-8.1-.22-1.53-3.74-.73-3.71.67,0,2.89.11,5.74.32,8.61.12,1.76-.26,5.17,1.46,6.19a2.12,2.12,0,0,0,2.63-.46C113.51,98.62,112.85,96,112.64,93.76Z"/><path class="cls-1" d="M130.29,26.43c-.69-.86-2.09-.49-2.9-.1A15.17,15.17,0,0,0,121.72,31c-.47.64-1.61,1.89-1.2,2.72.54,1.1,3.35.74,3.54-.49.07-.41.82-1.06,1.11-1.38a16.22,16.22,0,0,1,1.35-1.27,12.55,12.55,0,0,1,2.94-1.82C130.28,28.34,130.91,27.22,130.29,26.43Z"/><path class="cls-1" d="M152.34,34.49a88.45,88.45,0,0,0-9.42,3.44c-3,1.16-6.29,2.1-9,3.8-1.68,1-1.11,3,.93,2.71,3.13-.45,6.21-1.94,9.16-3a97.25,97.25,0,0,0,9.11-3.5C155.11,36.89,155.17,33.75,152.34,34.49Z"/><path class="cls-1" d="M147,62.25c-1.68-.7-3.31-.45-5.1-.28s-3.62.39-5.43.59-3.27,2.83-.75,2.91c1.78,0,3.56.13,5.33.15a11.22,11.22,0,0,0,4.93-.54C146.77,64.72,148.69,63,147,62.25Z"/><path class="cls-1" d="M146.2,93.64a83.58,83.58,0,0,0-7.41-7.41c-2.32-2.21-4.66-4.9-7.46-6.49-1.53-.86-4.84.82-3.5,2.7,1.94,2.71,4.76,4.9,7.15,7.21,2.25,2.16,4.4,4.57,6.83,6.54.38,1.17,2.31,1.14,3.34.48l.37-.24A1.91,1.91,0,0,0,146.2,93.64Z"/><path class="cls-1" d="M90,83.89a22,22,0,0,0-4.17,3.72,32.46,32.46,0,0,0-3.56,4.13,1.32,1.32,0,0,0,.59,2.06,2.9,2.9,0,0,0,2.92-.66c1.19-1.13,2.18-2.5,3.29-3.71a42.37,42.37,0,0,0,3.51-3.94C93.73,83.78,91.14,83.14,90,83.89Z"/><path class="cls-1" d="M86.44,69.18c-2.4-1-5.92-.09-8.35.46-1,.23-2.45,1.07-2.2,2.33s1.84,1.22,2.81.93a21.73,21.73,0,0,1,3.47-.77,17.33,17.33,0,0,0,3.52-.55C86.78,71.19,88,69.86,86.44,69.18Z"/><path class="cls-1" d="M84.08,46.71c-5-1.67-9.91-3.18-14.94-4.6-2.57-1.52-6.14,3.26-2.68,4.06,5.29,1.22,10.56,2.28,15.9,3.24C83.8,49.67,86.26,47.45,84.08,46.71Z"/><path class="cls-1" d="M92.52,33.34l-.36-.28a11.83,11.83,0,0,0-1-.71,19.41,19.41,0,0,0-1.74-1.08,8.57,8.57,0,0,0-4.78-1.2c-.83,0-2.87,1.18-1.89,2.25,1.63,1.77,4.12,2.8,6.06,4.28a2.6,2.6,0,0,0,2.82.25l.52-.29c.39-.21.69-.86,1-1Z"/></svg>